<?xml version="1.0" encoding="UTF-8"?>
<svg width="20" height="20" viewBox="0 0 20 20" fill="none" xmlns="http://www.w3.org/2000/svg">
  <path d="M19.8055 10.2275C19.8055 9.51691 19.7455 8.83941 19.6355 8.18701H10.2002V11.9495H15.6002C15.3752 13.1695 14.6852 14.2095 13.6502 14.8819V17.3369H16.8552C18.7452 15.6119 19.8055 13.1445 19.8055 10.2275Z" fill="#4285F4"/>
  <path d="M10.2002 20C12.9002 20 15.1702 19.1 16.8552 17.3375L13.6502 14.8825C12.7502 15.4825 11.5902 15.8375 10.2002 15.8375C7.5952 15.8375 5.3852 14.0925 4.6002 11.7275H1.2902V14.2625C2.9652 17.6375 6.3052 20 10.2002 20Z" fill="#34A853"/>
  <path d="M4.6002 11.7275C4.2002 10.5275 4.2002 9.22251 4.6002 8.02251V5.48751H1.2902C-0.119797 8.30751 -0.119797 11.4425 1.2902 14.2625L4.6002 11.7275Z" fill="#FBBC04"/>
  <path d="M10.2002 4.1625C11.6252 4.1375 13.0002 4.7125 14.0402 5.7125L16.8902 2.8625C15.0802 1.1425 12.6852 0.1875 10.2002 0.2125C6.3052 0.2125 2.9652 2.575 1.2902 5.4875L4.6002 8.0225C5.3852 5.6575 7.5952 3.9125 10.2002 4.1625Z" fill="#EA4335"/>
</svg> 